<?xml version="1.0" encoding="utf-8"?>
<!-- Generator: Adobe Illustrator 22.0.1, SVG Export Plug-In . SVG Version: 6.00 Build 0)  -->
<svg version="1.1" id="Layer_1" xmlns="http://www.w3.org/2000/svg" xmlns:xlink="http://www.w3.org/1999/xlink" x="0px" y="0px"
	 viewBox="0 0 374.4 145.1" style="enable-background:new 0 0 374.4 145.1;" xml:space="preserve">
<style type="text/css">
	.st0{fill:none;stroke:#36308C;stroke-width:2;stroke-miterlimit:10;}
	.st1{fill:none;stroke:#36308C;stroke-width:2;stroke-miterlimit:10;stroke-dasharray:11.7909,11.7909;}
	.st2{fill:none;stroke:#36308C;stroke-width:2;stroke-miterlimit:10;stroke-dasharray:12.5792,12.5792;}
	.st3{fill:#36308C;}
</style>
<path d="M2355.8,2451.1c-0.6,0-1,0.4-1,1c0,0.6,0.4,1,1,1h22.6l-11.3,11.3c-0.4,0.4-0.4,1,0,1.4c0.4,0.4,1,0.4,1.4,0l13-13l0,0
	c0.2-0.2,0.3-0.4,0.3-0.7l0,0v0l0,0c0-0.3-0.2-0.6-0.4-0.8l-12.9-12.9c-0.4-0.4-1-0.4-1.4,0c-0.4,0.4-0.4,1,0,1.4l11.3,11.3H2355.8
	L2355.8,2451.1z"/>
<g>
	<g>
		<path class="st0" d="M356.1,128.5c0,0,0.5-2.3,0.5-6"/>
		<path class="st1" d="M355.3,110.8c-4.8-21-26.7-52.8-115.4-49"/>
		<path class="st0" d="M234,62.1c-2,0.1-4,0.2-6,0.4c0.1,0-2.1,0-6-0.1"/>
		<path class="st2" d="M209.5,62.3c-32.8-0.3-97.4-0.8-97.4-0.8S26.5,68,5.9,16.3"/>
		<path class="st0" d="M3.9,10.4c-0.5-1.9-1-3.8-1.3-5.9"/>
	</g>
</g>
<path class="st3" d="M343,130.8c-1.2-1.2-1.2-3.1,0-4.2c1.2-1.2,3-1.2,4.2,0l9.1,9.1l9.1-9.1c1.2-1.2,3.1-1.2,4.2,0
	c1.2,1.2,1.2,3.1,0,4.2L358.5,142l0,0c-1.2,1.2-3.1,1.2-4.2,0l0,0L343,130.8L343,130.8z"/>
</svg>
